<svg width="1440" height="205" viewBox="0 0 1440 205" fill="none" xmlns="http://www.w3.org/2000/svg">
<path d="M1381.09 102.065L1480.88 136.001H1337.7L1319.35 133.998L1310.45 128.435L1340.82 102.065H1381.09Z" fill="#172B4D"/>
<path d="M1311.34 13.6113L1294.32 14.1676L1286.53 0.371094L1270.18 1.14993L1277.85 14.6127L1261.61 15.169L1269.18 28.8543L1285.53 28.5205L1302.44 28.0754L1310.67 42.317L1328.14 42.2058L1336.81 56.8924H1355.17L1346.16 41.9833L1337.37 27.2966L1319.68 27.7417L1311.34 13.6113Z" fill="#C5E9DA"/>
<path d="M1423.92 42.54L1486.77 76.4751L1326.58 73.9161L1423.92 42.54Z" fill="#C5E9DA" stroke="#36B37E" stroke-width="1.35786" stroke-miterlimit="10"/>
<path d="M122.767 98.0334L235.42 77.3916L179.151 132.011L122.767 98.0334Z" fill="#172B4D"/>
<path d="M38.5381 128.416L184.256 77.3916L120.795 161.466L38.5381 128.416Z" fill="#C5E9DA" stroke="#36B37E" stroke-width="1.43685" stroke-miterlimit="10"/>
<path d="M111.049 174.454L184.256 77.3916L136.341 178.513L111.049 174.454Z" fill="white" stroke="#36B37E" stroke-width="1.43685" stroke-miterlimit="10" stroke-linejoin="round"/>
<path d="M45.731 176.889L27.9803 177.469L19.743 163.205L2.68843 163.901L10.6937 178.049L-6.12891 178.512L1.64427 192.776L18.8149 192.428L36.3335 191.964L44.9189 206.924L63.2496 206.692L72.299 221.999H91.3259L82.0445 206.46L72.8791 191.269L54.3163 191.617L45.731 176.889Z" fill="#C5E9DA"/>
<path d="M28.7925 148.246L46.4272 147.318L37.9579 133.286L29.7206 119.486L12.666 120.762L-4.04053 121.922L3.73266 135.374L20.6712 134.33L28.7925 148.246Z" fill="#36B37E"/>
</svg>
